<svg width="116" height="116" viewBox="0 0 116 116" fill="none" xmlns="http://www.w3.org/2000/svg">
<path d="M85.557 47.023L84.5869 46.6779L76.3864 31.3019C73.248 25.4174 67.1218 21.7417 60.4528 21.7417H39.8053C32.0325 21.7417 25.1318 26.7154 22.6739 34.0893L18.7655 45.8145C12.1798 48.5879 7.72314 55.0827 7.72314 62.4556V70.4985C7.72314 75.6251 10.775 80.0389 15.161 82.0222C16.3429 88.8119 22.265 93.9741 29.3929 93.9741C36.1243 93.9741 41.7805 89.3701 43.3842 83.1392H73.1874C74.7911 89.3701 80.4473 93.9741 87.1787 93.9741C94.3066 93.9741 100.229 88.8119 101.411 82.0222C105.797 80.0389 108.848 75.6251 108.848 70.4985V68.0518C108.848 60.4121 104.041 53.599 96.8432 51.0383L85.9372 47.1583V47.023H85.557ZM39.8053 28.9649H47.4509V47.023H25.9766L29.5264 36.3735C31.0012 31.9492 35.1416 28.9649 39.8053 28.9649ZM54.6742 28.9649H60.4528C64.4542 28.9649 68.1299 31.1704 70.0129 34.701L76.5847 47.023H54.6742V28.9649ZM84.3104 54.2463L94.4221 57.8437C98.7407 59.3801 101.625 63.468 101.625 68.0518V70.4985C101.625 71.763 101.192 72.9262 100.466 73.848C98.2596 68.693 93.141 65.0811 87.1787 65.0811C80.4473 65.0811 74.7911 69.6851 73.1874 75.916H43.3842C41.7805 69.6851 36.1243 65.0811 29.3929 65.0811C23.4306 65.0811 18.312 68.693 16.1056 73.848C15.3796 72.9262 14.9464 71.763 14.9464 70.4985V62.4556C14.9464 59.2124 16.3845 56.251 18.709 54.2463H84.3104ZM22.1696 79.5276C22.1696 75.5383 25.4036 72.3044 29.3929 72.3044C33.3821 72.3044 36.6161 75.5383 36.6161 79.5276C36.6161 83.5169 33.3821 86.7508 29.3929 86.7508C25.4036 86.7508 22.1696 83.5169 22.1696 79.5276ZM87.1787 72.3044C91.168 72.3044 94.402 75.5383 94.402 79.5276C94.402 83.5169 91.168 86.7508 87.1787 86.7508C83.1895 86.7508 79.9555 83.5169 79.9555 79.5276C79.9555 75.5383 83.1895 72.3044 87.1787 72.3044Z" fill="#E05507"/>
</svg>
