<svg width="209" height="47" viewBox="0 0 209 47" fill="none" xmlns="http://www.w3.org/2000/svg">
<path fill-rule="evenodd" clip-rule="evenodd" d="M23.4098 12.3875C26.3072 12.3875 28.6056 13.3801 30.3052 15.3652C32.0047 17.3504 32.6563 19.7604 32.26 22.5953C31.8637 25.4231 30.5355 27.818 28.2754 29.7799C26.1628 31.6872 23.4147 32.7375 20.5686 32.7255C17.6694 32.7255 15.3638 31.7437 13.6518 29.7799C11.9398 27.8162 11.2908 25.4213 11.705 22.5953C12.1013 19.7676 13.4224 17.3575 15.6682 15.3652C17.7805 13.4314 20.546 12.3677 23.4098 12.3875ZM21.0319 29.2096C22.9032 29.2206 24.7084 28.5177 26.0796 27.244C27.4926 26.036 28.4131 24.3513 28.6663 22.5097C28.9234 20.6798 28.4994 19.1195 27.3944 17.8288C26.2938 16.5328 24.8022 15.8901 22.9197 15.8901C21.0565 15.8744 19.2569 16.5674 17.8854 17.8288C16.4851 19.0216 15.5721 20.6875 15.3201 22.5097C15.0576 24.3734 15.4736 25.956 16.5679 27.2574C17.6578 28.5615 19.1493 29.2096 21.0319 29.2096Z" fill="white"/>
<path fill-rule="evenodd" clip-rule="evenodd" d="M0.51416 32.2328L3.24019 12.7275H6.84454L4.60588 28.7329H10.5747L10.0874 32.2328H0.51416Z" fill="white"/>
<path fill-rule="evenodd" clip-rule="evenodd" d="M41.9432 22.2951H54.6441C54.1621 25.3496 52.8464 27.8489 50.697 29.793C48.5476 31.7371 45.926 32.7082 42.8323 32.7064C39.8492 32.7064 37.4962 31.7621 35.7735 29.8733C34.0508 27.9845 33.4054 25.5638 33.8374 22.611C34.2081 19.7584 35.6428 17.1511 37.8542 15.3113C39.9935 13.4119 42.759 12.3696 45.6199 12.3844C47.8514 12.3844 49.7259 12.9245 51.2433 14.0045C52.7485 15.0745 53.7992 16.6686 54.1889 18.4738H49.891C49.4963 17.6384 48.8376 16.9561 48.0165 16.5324C47.1254 16.0871 46.1392 15.8656 45.1432 15.887C43.2743 15.8637 41.4625 16.5312 40.0554 17.7615C38.6267 18.9511 37.7023 20.6382 37.4686 22.4825C37.3198 23.3054 37.3479 24.1506 37.551 24.9619C37.7542 25.7731 38.1277 26.5318 38.6468 27.1874C39.7037 28.5281 41.2952 29.2003 43.4214 29.2038C44.6486 29.2243 45.8605 28.9283 46.94 28.3443C48.0639 27.7317 48.9885 26.8098 49.6045 25.6879H41.4692L41.9432 22.2951Z" fill="white"/>
<path fill-rule="evenodd" clip-rule="evenodd" d="M55.6772 32.2328L58.4033 12.7275H62.0076L59.2789 32.2328H55.6772Z" fill="white"/>
<path fill-rule="evenodd" clip-rule="evenodd" d="M83.1416 18.3157H79.0419C78.5571 17.5658 77.8925 16.9491 77.1085 16.5215C76.2992 16.0953 75.3962 15.8781 74.4816 15.8896C72.6136 15.8694 70.8115 16.5784 69.458 17.8658C68.096 19.0555 67.2042 20.6929 66.9435 22.4824C66.6846 24.3265 67.1033 25.9136 68.1994 27.2435C69.2955 28.5735 70.7772 29.2287 72.6446 29.2091C73.555 29.2061 74.4552 29.0175 75.2903 28.6548C76.1941 28.2606 77.0011 27.6739 77.6548 26.9356H81.8456C80.8076 28.6574 79.3713 30.1048 77.6574 31.1558C75.9711 32.1871 74.0294 32.7251 72.0528 32.709C69.1964 32.709 66.9274 31.7271 65.2457 29.7634C63.5641 27.7996 62.9285 25.3744 63.3391 22.4877C63.7301 19.6939 65.0431 17.3124 67.2782 15.3433C69.373 13.4315 72.1115 12.3797 74.9475 12.3977C76.9666 12.3977 78.6982 12.9208 80.1425 13.9669C81.6008 15.0399 82.6569 16.5712 83.1416 18.3157Z" fill="white"/>
<path fill-rule="evenodd" clip-rule="evenodd" d="M120.363 32.2328L123.094 12.7275H128.552C130.776 12.7454 132.421 13.2943 133.487 14.3744C134.553 15.4545 134.951 16.9362 134.681 18.8196C134.475 20.5206 133.625 22.078 132.306 23.1711C130.969 24.3011 129.15 24.8643 126.848 24.8608H125.001L123.97 32.2355L120.363 32.2328ZM126.206 16.2275L125.488 21.3608H127.63C128.465 21.4028 129.292 21.1797 129.992 20.7235C130.296 20.4932 130.549 20.203 130.736 19.8709C130.923 19.5388 131.04 19.1719 131.079 18.7928C131.201 17.9502 131.022 17.3111 130.544 16.8755C130.067 16.4444 129.334 16.2275 128.348 16.2275H126.206Z" fill="white"/>
<path fill-rule="evenodd" clip-rule="evenodd" d="M147.216 12.3875C150.113 12.3875 152.412 13.3801 154.111 15.3652C155.811 17.3504 156.463 19.7604 156.066 22.5953C155.666 25.4231 154.338 27.818 152.082 29.7799C149.968 31.6876 147.219 32.7379 144.372 32.7256C141.475 32.7256 139.169 31.7437 137.455 29.7799C135.742 27.8162 135.094 25.4213 135.514 22.5953C135.905 19.7676 137.23 17.3602 139.472 15.3652C141.585 13.4312 144.351 12.3675 147.216 12.3875ZM144.835 29.2096C146.708 29.221 148.514 28.5181 149.886 27.244C151.298 26.0352 152.218 24.351 152.473 22.5097C152.73 20.6798 152.306 19.1195 151.201 17.8288C150.1 16.5328 148.606 15.8901 146.726 15.8901C144.863 15.8744 143.063 16.5674 141.692 17.8288C140.291 19.0216 139.378 20.6875 139.126 22.5097C138.864 24.3734 139.279 25.956 140.371 27.2574C141.464 28.5615 142.956 29.2096 144.835 29.2096Z" fill="white"/>
<path fill-rule="evenodd" clip-rule="evenodd" d="M160.217 32.2328L157.292 12.7275H160.924L162.41 26.3818L167.645 12.7275H170.277L171.688 26.3818L176.999 12.7275H180.63L172.248 32.2328H169.469L168.063 19.1543L162.999 32.2328H160.217Z" fill="white"/>
<path fill-rule="evenodd" clip-rule="evenodd" d="M179.872 32.2328L182.598 12.7275H193.066L192.576 16.2275H185.715L185.08 20.7449H191.654L191.162 24.2449H184.59L183.964 28.7329H190.824L190.337 32.2328H179.872Z" fill="white"/>
<path fill-rule="evenodd" clip-rule="evenodd" d="M193.575 32.2328L196.301 12.7275H201.948C204.299 12.7275 206.031 13.281 207.143 14.3878C208.255 15.4946 208.677 17.0121 208.407 18.9401C208.197 20.5109 207.479 21.9701 206.364 23.0961C205.289 24.2274 203.834 24.9217 202.278 25.0455L206.758 32.2328H202.369L198.309 25.0455H198.183L197.179 32.2328H193.575ZM199.418 16.2275L198.614 22.0357H200.757C201.719 22.0757 202.672 21.8337 203.499 21.3394C204.213 20.8735 204.641 20.138 204.784 19.1329C204.927 18.1278 204.698 17.3977 204.099 16.9424C203.522 16.4658 202.679 16.2275 201.571 16.2275H199.418Z" fill="white"/>
<path fill-rule="evenodd" clip-rule="evenodd" d="M99.31 16.806L103.811 0H99.5457L93.1189 23.9317C92.8029 25.11 93.5018 26.074 94.6801 26.074H104.028L105.367 21.7948H97.9631L99.31 16.806Z" fill="#F36C21"/>
<path fill-rule="evenodd" clip-rule="evenodd" d="M110.187 16.3745C111.368 16.3745 112.062 17.3305 111.751 18.5168L108.639 29.3298C108.464 29.921 108.11 30.4433 107.626 30.8246C107.141 31.2059 106.551 31.4275 105.935 31.4587H100.333C99.6232 34.1097 98.2628 39.136 97.5425 41.8353H98.6886L93.9703 46.5804L91.9619 41.8353H93.2714L96.6401 29.3298C96.8122 28.7364 97.1648 28.2112 97.649 27.8273C98.1332 27.4434 98.7249 27.2198 99.342 27.1876H104.947C105.375 25.5809 106.473 22.2443 106.904 20.6456H99.6258L100.745 16.3772L110.187 16.3745Z" fill="#F36C21"/>
<path fill-rule="evenodd" clip-rule="evenodd" d="M94.0453 34.1314C91.6722 32.4928 89.8761 30.1478 88.9124 27.4298C87.9486 24.7118 87.8663 21.7591 88.6771 18.9916C89.4879 16.2241 91.1505 13.7826 93.4286 12.0143C95.7067 10.246 98.4843 9.24097 101.366 9.142L102.395 5.29932C102.231 5.29932 102.071 5.29932 101.907 5.29932C98.0737 5.3044 94.348 6.56917 91.3036 8.89899C88.2592 11.2288 86.0647 14.4945 85.058 18.1936C84.0513 21.8927 84.2881 25.8201 85.732 29.3714C87.1759 32.9227 89.7468 35.9011 93.0491 37.8483L94.0453 34.1314Z" fill="#F36C21"/>
<path fill-rule="evenodd" clip-rule="evenodd" d="M103.685 5.37744L102.67 9.15585C104.728 9.27833 106.732 9.86291 108.532 10.8661C110.333 11.8694 111.884 13.2655 113.071 14.9507C114.258 16.636 115.05 18.567 115.388 20.6004C115.726 22.6337 115.602 24.7171 115.024 26.6957C114.446 28.6743 113.43 30.4973 112.05 32.0292C110.671 33.561 108.965 34.7624 107.057 35.544C105.15 36.3257 103.091 36.6674 101.033 36.544C98.9759 36.4205 96.9726 35.8349 95.1725 34.8308L94.1978 38.4673C96.4931 39.5948 99.0079 40.2052 101.565 40.2553C104.122 40.3054 106.658 39.7941 108.996 38.7573C111.334 37.7206 113.416 36.1837 115.095 34.255C116.775 32.3262 118.01 30.0526 118.716 27.5944C119.421 25.1362 119.578 22.5533 119.177 20.0276C118.775 17.5019 117.825 15.0951 116.392 12.9767C114.96 10.8583 113.08 9.07987 110.885 7.76688C108.691 6.45388 106.235 5.63824 103.691 5.37744" fill="#F36C21"/>
</svg>
